# xmcd CD database file
#
# Track frame offsets:
#	183
#	18680
#	36418
#	56190
#	69818
#	83453
#	97913
#	114235
#	129300
#	151895
#	169845
#	185355
#	200955
#	212365
#	229380
#	246340
#	271230
#	290020
#
# Disc length: 4066 seconds
#
# Revision: 1
# Processed by: cddbd v1.5.1PL0 Copyright (c) Steve Scherf et al.
# Submitted via: CDex 1.51
#
DISCID=fc0fe012
DTITLE=Various Artist - Gefühle - Vol.7 - Die schönsten romantischen Schlager
DYEAR=1900
DGENRE=Oldies
TTITLE0=Demis Roussos - Schön wie Mona Lisa
TTITLE1=Daliah Lavi - Nichts haut mich um, aber du
TTITLE2=Bernd Clüver - Das Tor zum Garten der Träume
TTITLE3=Marianne Rosenberg - Er gehört zu mir
TTITLE4=Jüregn Marcus - Ein Lied zieht hinaus in die Welt
TTITLE5=Gitte - Lass mich heute nicht allein
TTITLE6=Roger Whittaker - Du warst mein schönster Traum
TTITLE7=Mary Roos - Matthias
TTITLE8=Drafi Deutscher - Selbst die Steine werden weinen
TTITLE9=Howard Carpendale - Du fängst den Wind niemals ein
TTITLE10=Lars Berghagen - Es war einmal eine Gitarre
TTITLE11=Vicky Leandros - Rot ist die Liebe
TTITLE12=Reinhard Mey - Du bist die Stille
TTITLE13=Michael Schanze - Du hast geweint
TTITLE14=Dana - Spiel nicht mit mir und meinem Glück
TTITLE15=Christian Anders - Wer liebt hat keine Wahl
TTITLE16=Michael Holm - Wart auf mich
TTITLE17=Bruce Low - Das Kartenspiel
EXTD=
EXTT0=
EXTT1=
EXTT2=
EXTT3=
EXTT4=
EXTT5=
EXTT6=
EXTT7=
EXTT8=
EXTT9=
EXTT10=
EXTT11=
EXTT12=
EXTT13=
EXTT14=
EXTT15=
EXTT16=
EXTT17=
PLAYORDER=
